<?xml version="1.0" standalone="no"?>
<!DOCTYPE svg PUBLIC "-//W3C//DTD SVG 20010904//EN"
 "http://www.w3.org/TR/2001/REC-SVG-20010904/DTD/svg10.dtd">
<svg version="1.0" xmlns="http://www.w3.org/2000/svg"
 width="512.000000pt" height="512.000000pt" viewBox="0 0 512.000000 512.000000"
 preserveAspectRatio="xMidYMid meet">
<metadata>
Created by potrace 1.11, written by Peter Selinger 2001-2013
</metadata>
<g transform="translate(0.000000,512.000000) scale(0.100000,-0.100000)"
fill="#000000" stroke="none">
<path d="M2470 2750 l0 -1449 633 4 c347 1 650 6 672 9 110 18 206 39 265 58
146 46 338 169 416 265 21 26 41 50 44 53 18 15 82 135 102 190 39 106 52 190
51 322 -2 148 -22 240 -78 353 -41 85 -62 113 -140 189 -91 88 -221 158 -370
198 l-49 13 75 47 c221 138 324 326 314 578 -6 170 -52 287 -155 390 -103 103
-291 187 -465 206 -33 3 -69 8 -80 11 -11 3 -293 6 -627 8 l-608 3 0 -1448z
m1155 1105 c49 -6 76 -11 124 -21 45 -9 128 -54 164 -87 80 -77 108 -195 83
-362 -29 -191 -171 -310 -406 -341 -80 -10 -721 -11 -727 -1 -4 7 -7 650 -4
794 l1 32 358 -4 c196 -1 380 -6 407 -10z m135 -1159 c143 -23 135 -21 190
-41 106 -38 206 -118 246 -197 57 -113 72 -320 32 -457 -46 -156 -212 -297
-385 -327 -16 -3 -35 -7 -43 -9 -68 -20 -185 -26 -572 -30 l-368 -4 -1 37 c-1
56 -1 983 0 1015 l1 28 433 -5 c237 -2 448 -7 467 -10z"/>
<path d="M532 2728 c-1 -1101 2 -1438 11 -1439 77 -4 1800 0 1804 5 3 3 7 80
7 171 l1 165 -717 0 c-677 0 -718 1 -719 18 0 9 -1 573 -1 1252 0 679 -1 1242
-4 1250 -3 13 -33 15 -193 15 l-189 0 0 -1437z"/>
<path d="M1160 2779 l0 -909 599 0 598 0 0 109 0 109 -468 0 c-258 0 -472 3
-477 6 -5 3 -9 154 -9 336 l0 330 477 0 477 0 0 109 -1 109 -475 -1 -476 0 -1
242 c-1 139 3 244 8 247 5 3 219 7 476 8 l467 1 2 107 2 107 -600 -1 -599 0 0
-909z"/>
</g>
</svg>
